<?xml version="1.0" standalone="no"?>
<!DOCTYPE svg PUBLIC "-//W3C//DTD SVG 20010904//EN"
 "http://www.w3.org/TR/2001/REC-SVG-20010904/DTD/svg10.dtd">
<svg version="1.0" xmlns="http://www.w3.org/2000/svg"
 width="1330.000000pt" height="318.000000pt" viewBox="0 0 1330.000000 318.000000"
 preserveAspectRatio="xMidYMid meet">
<metadata>
Created by potrace 1.15, written by Peter Selinger 2001-2017
</metadata>
<g transform="translate(0.000000,318.000000) scale(0.100000,-0.100000)"
fill="#000000" stroke="none">
<path d="M5830 2800 c-287 -35 -558 -132 -712 -255 -107 -86 -173 -220 -148
-304 34 -119 173 -212 295 -196 109 13 264 108 414 251 81 78 85 84 69 100
-16 16 -22 14 -110 -43 -208 -135 -438 -228 -502 -204 -85 33 -2 195 153 301
221 149 590 250 914 250 210 0 519 -44 762 -109 77 -20 114 -26 123 -19 20 17
14 26 -30 49 -115 59 -373 131 -588 164 -123 20 -525 28 -640 15z"/>
<path d="M1392 2775 c-361 -93 -820 -463 -995 -801 -127 -247 -97 -426 90
-526 74 -40 176 -68 253 -68 104 0 274 69 428 173 45 31 82 54 82 52 0 -3 -23
-36 -50 -74 -67 -92 -138 -227 -145 -276 -9 -57 18 -101 84 -138 96 -54 161
-34 279 85 71 72 102 115 102 141 0 29 -35 20 -86 -24 -66 -54 -211 -141 -229
-137 -29 6 54 156 188 338 89 121 159 203 313 367 68 72 124 137 124 145 0 7
-9 31 -21 52 l-21 39 78 -6 c42 -4 79 -9 82 -12 3 -2 -50 -85 -117 -185 -76
-113 -121 -189 -121 -205 0 -56 61 -129 101 -123 19 2 25 11 30 40 18 112 290
403 444 474 66 31 105 31 133 -1 28 -32 40 -32 52 1 16 41 12 106 -10 141 -38
63 -85 52 -219 -52 -57 -45 -75 -55 -82 -44 -5 8 -9 17 -9 22 0 4 -19 28 -41
52 -51 55 -89 62 -89 15 0 -16 -5 -40 -11 -54 -11 -24 -12 -24 -53 -10 -85 31
-203 53 -337 66 l-139 12 79 41 c171 89 281 200 281 283 0 45 -59 133 -113
169 -90 60 -181 68 -335 28z m308 -100 c10 -12 10 -24 2 -53 -19 -63 -68 -126
-183 -236 -60 -57 -109 -111 -109 -120 0 -10 -16 -16 -57 -21 -200 -22 -312
-50 -399 -101 -104 -61 -169 -188 -138 -269 17 -44 117 -58 213 -29 64 19 67
44 6 58 -91 20 -130 32 -130 41 0 29 211 116 352 144 100 21 399 48 410 37 3
-3 -6 -25 -21 -50 -87 -149 -548 -447 -845 -546 -111 -37 -207 -43 -259 -16
-138 72 -41 372 217 664 149 169 415 366 597 442 153 64 315 89 344 55z"/>
<path d="M4124 2689 c-3 -6 -7 -28 -8 -48 -1 -21 -13 -55 -26 -77 -51 -84
-223 -326 -235 -330 -7 -3 -27 2 -43 10 -30 15 -31 15 -61 -19 -46 -53 -50
-83 -16 -111 l27 -22 -23 -31 c-12 -17 -29 -31 -37 -31 -7 0 -39 -20 -70 -44
-124 -95 -339 -221 -446 -261 -63 -24 -116 -32 -116 -19 0 4 12 33 26 65 21
46 32 59 49 59 45 0 183 42 262 79 143 69 263 164 263 208 0 35 -44 105 -81
130 -73 48 -180 26 -321 -66 -40 -26 -98 -71 -129 -99 -31 -29 -64 -52 -73
-52 -9 0 -44 -22 -79 -48 -166 -129 -449 -282 -521 -282 -27 0 -28 2 -22 31 3
18 15 46 25 63 18 28 29 33 104 49 147 30 325 119 414 207 41 40 45 47 40 82
-6 46 -46 102 -89 124 -64 33 -163 13 -279 -57 -202 -122 -369 -320 -369 -437
0 -80 101 -182 180 -182 78 0 211 69 372 192 49 38 92 68 94 66 1 -2 -1 -23
-7 -46 -12 -55 11 -113 65 -160 75 -66 128 -68 244 -12 91 43 192 110 297 193
38 31 71 55 72 53 2 -2 -17 -39 -43 -82 -55 -94 -165 -310 -195 -386 -75 -188
-66 -268 37 -337 93 -61 136 -50 255 68 118 118 195 267 233 454 20 94 20 272
2 352 l-14 59 35 48 c19 27 44 50 56 52 137 26 199 41 236 57 24 10 46 19 48
19 2 0 -23 -39 -57 -87 -114 -161 -207 -308 -220 -344 -17 -47 -2 -86 47 -129
48 -43 83 -40 152 12 107 80 371 360 371 392 0 8 -7 17 -16 20 -11 4 -40 -15
-92 -61 -101 -92 -223 -195 -262 -223 l-32 -23 20 40 c11 21 60 93 108 159
149 203 147 200 141 226 -4 14 -25 46 -48 72 -33 37 -47 46 -68 44 -23 -3 -26
-7 -23 -38 3 -29 2 -32 -11 -22 -11 9 -27 10 -58 3 -63 -13 -179 -24 -179 -16
0 3 54 82 120 174 66 93 120 174 120 181 0 7 -14 35 -31 62 -47 73 -97 106
-115 77z m-1250 -570 c-59 -62 -276 -200 -290 -186 -6 6 130 125 190 166 51
35 128 72 135 65 3 -2 -13 -23 -35 -45z m676 42 c0 -27 -212 -182 -297 -217
l-38 -16 40 42 c55 57 175 148 233 176 52 26 62 28 62 15z m280 -417 c-20
-156 -95 -323 -206 -462 -58 -72 -148 -152 -172 -152 -37 0 125 353 302 658
l71 124 8 -44 c4 -24 3 -80 -3 -124z"/>
<path d="M7659 2698 c-1 -2 -3 -20 -4 -40 -3 -49 -57 -138 -251 -410 -92 -131
-161 -218 -171 -218 -8 0 -46 -24 -83 -54 -199 -161 -510 -323 -510 -265 0 18
49 110 85 160 62 84 216 222 292 262 64 33 113 47 113 31 0 -3 -20 -35 -45
-71 -45 -64 -53 -87 -35 -98 21 -13 119 60 151 112 15 23 19 42 14 62 -8 37
-72 97 -113 106 -40 8 -135 -16 -210 -54 -58 -29 -189 -127 -226 -169 -11 -12
-26 -22 -34 -22 -8 0 -46 -24 -86 -54 -160 -120 -422 -262 -504 -273 -50 -7
-51 -2 -16 73 20 42 30 54 48 54 93 0 331 100 438 185 72 56 91 90 78 137 -13
45 -78 107 -125 118 -161 36 -538 -251 -602 -459 -17 -56 -11 -94 23 -138 45
-59 101 -93 153 -93 77 0 240 89 411 224 42 33 61 44 57 31 -18 -44 -19 -102
-4 -131 34 -65 116 -124 172 -124 74 0 242 98 398 232 31 28 57 47 57 44 0 -3
-16 -34 -35 -69 -19 -35 -35 -72 -35 -83 0 -28 41 -94 73 -118 32 -24 61 -13
63 23 3 45 133 202 280 337 104 94 194 167 201 160 2 -2 -20 -35 -48 -72 -106
-140 -189 -276 -189 -311 0 -66 65 -143 120 -143 32 0 119 62 195 139 52 54
73 65 54 30 -16 -31 -3 -79 32 -122 37 -45 79 -52 79 -13 0 34 62 110 214 261
124 124 221 206 276 235 l25 13 -27 -34 c-58 -73 -182 -253 -210 -305 -28 -51
-30 -59 -19 -94 15 -50 81 -110 121 -110 34 0 105 53 223 169 l78 76 -6 -37
c-10 -52 10 -101 57 -143 107 -97 233 -87 396 34 120 90 216 203 268 316 25
55 26 55 70 55 24 0 44 -2 44 -5 0 -2 -32 -53 -71 -112 -137 -208 -145 -240
-75 -309 74 -74 111 -59 289 115 l88 86 -6 -37 c-9 -48 9 -100 48 -140 64 -64
153 -83 251 -54 139 42 347 237 418 394 l28 62 51 0 51 0 -64 -69 c-107 -118
-152 -213 -135 -283 4 -13 23 -43 43 -66 l36 -43 -43 -17 c-267 -103 -469
-258 -469 -359 0 -147 227 -260 395 -196 165 63 359 247 532 504 l85 127 52
10 c51 11 51 10 81 -23 35 -39 64 -55 99 -55 27 0 139 85 221 169 27 28 52 51
56 51 3 0 4 -11 1 -25 -7 -40 6 -74 50 -121 73 -79 122 -91 222 -54 105 40
306 179 449 311 46 42 82 68 85 62 4 -6 22 -19 40 -30 l33 -20 -96 -47 c-111
-54 -205 -135 -205 -177 0 -60 94 -139 166 -139 144 1 394 133 424 225 14 44
7 67 -31 100 l-31 25 36 15 c19 8 86 29 148 46 117 32 138 42 138 64 0 7 -6
15 -12 17 -20 8 -212 -28 -326 -61 -86 -24 -109 -27 -138 -18 -19 6 -34 16
-34 24 0 34 203 154 285 168 l40 7 -56 -58 c-83 -87 -59 -110 57 -55 96 45
119 100 68 161 -36 42 -74 60 -132 60 -134 0 -345 -113 -387 -208 -18 -39
-109 -110 -275 -212 -181 -113 -370 -188 -370 -149 0 8 11 37 24 65 l24 51 72
12 c139 23 333 116 425 205 35 33 45 50 45 75 0 63 -57 131 -124 150 -79 21
-223 -41 -369 -159 -48 -39 -91 -70 -96 -70 -6 0 -48 -34 -93 -76 -115 -104
-267 -228 -274 -221 -8 7 33 70 153 234 56 78 103 149 103 159 0 26 -46 99
-74 118 -14 9 -34 16 -45 16 -17 0 -20 -6 -19 -35 1 -37 -4 -45 -195 -322 -47
-68 -90 -136 -97 -153 -10 -24 -19 -30 -41 -30 -16 0 -29 2 -29 5 0 3 13 31
29 63 48 96 63 151 51 186 -9 25 -8 32 6 39 9 5 34 25 55 44 30 27 39 43 39
67 0 83 -107 154 -216 143 -62 -6 -170 -56 -249 -116 -42 -32 -61 -39 -118
-45 -108 -11 -129 -3 -155 55 -27 58 -77 99 -131 106 -31 4 -53 -1 -103 -26
-148 -73 -216 -114 -271 -161 -32 -27 -65 -50 -74 -50 -8 0 -45 -29 -81 -64
-37 -35 -114 -102 -171 -150 -97 -81 -132 -103 -115 -73 27 46 171 254 348
501 113 158 206 293 206 300 0 19 -69 115 -95 132 -37 24 -61 15 -57 -24 5
-45 -35 -113 -196 -341 -151 -214 -156 -218 -245 -206 -50 6 -53 8 -76 57 -33
70 -91 111 -149 105 -23 -2 -64 -16 -90 -29 -26 -13 -83 -43 -127 -66 -44 -23
-106 -64 -137 -92 -31 -27 -63 -50 -71 -50 -9 0 -64 -43 -124 -96 -136 -122
-242 -208 -248 -202 -9 9 115 181 217 301 32 38 58 78 58 90 0 31 -59 113 -96
133 -30 16 -32 16 -82 -11 -28 -15 -93 -61 -143 -103 -51 -41 -89 -66 -84 -56
16 40 16 53 2 80 -24 46 -77 94 -103 94 -20 0 -23 -5 -22 -35 1 -27 -11 -53
-53 -115 -29 -44 -60 -80 -67 -80 -8 0 -44 -28 -80 -63 -81 -76 -193 -173
-246 -213 -31 -23 -38 -25 -33 -11 12 33 103 158 192 266 67 82 84 109 79 125
-12 39 -65 106 -95 122 -48 25 -73 9 -327 -201 -42 -34 -58 -58 190 289 70 98
128 188 128 198 0 24 -51 100 -86 127 -23 18 -51 27 -55 19z m3361 -531 c0
-14 -56 -107 -64 -107 -3 0 -17 5 -31 12 -31 14 -56 -2 -37 -25 9 -10 2 -22
-31 -54 -100 -95 -397 -293 -397 -265 0 36 219 272 324 349 107 80 236 129
236 90z m-4549 -16 c-22 -41 -157 -139 -261 -190 l-65 -32 66 64 c69 67 166
138 222 162 43 19 49 18 38 -4z m5528 -10 c-30 -40 -140 -122 -231 -171 -43
-23 -78 -39 -78 -36 0 9 106 106 162 148 48 37 142 88 161 88 4 0 -2 -13 -14
-29z m-2859 -87 c17 -3 30 -9 30 -14 0 -5 -26 -42 -58 -82 -119 -149 -298
-288 -370 -288 -22 0 -24 3 -18 32 12 61 79 162 160 243 89 88 155 128 199
120 15 -3 41 -8 57 -11z m1030 6 c30 -6 55 -12 58 -14 9 -10 -68 -107 -153
-191 -101 -100 -204 -173 -259 -182 -32 -5 -36 -3 -36 17 0 40 71 159 139 232
57 61 169 148 191 148 4 0 31 -5 60 -10z m460 -488 c0 -20 -126 -178 -200
-251 -102 -101 -212 -175 -301 -202 -80 -24 -116 -20 -125 15 -23 93 224 281
541 412 93 39 85 36 85 26z"/>
<path d="M5979 2648 c-1 -2 -2 -22 -3 -45 -3 -53 -21 -82 -231 -368 -459 -625
-538 -762 -494 -848 33 -64 96 -107 158 -107 36 0 48 7 111 67 83 77 190 215
190 244 0 35 -34 19 -120 -57 -118 -105 -204 -168 -208 -154 -6 18 69 163 145
280 38 58 141 200 228 315 87 116 201 266 253 334 51 68 101 138 109 156 14
29 14 35 -3 71 -23 49 -88 114 -114 114 -11 0 -20 -1 -21 -2z"/>
<path d="M4433 2533 c1 -45 -7 -74 -32 -128 -37 -81 -37 -109 -1 -113 18 -2
45 15 103 63 62 53 77 71 77 94 0 35 -50 105 -89 126 -51 26 -58 21 -58 -42z"/>
<path d="M11450 2539 c0 -39 -10 -76 -35 -134 -37 -84 -37 -115 -3 -115 23 0
103 58 157 114 l34 35 -17 40 c-22 49 -72 97 -108 106 -28 7 -28 7 -28 -46z"/>
<path d="M7313 1070 c-120 -22 -240 -95 -258 -157 -7 -26 33 -73 62 -73 17 1
17 1 1 11 -72 41 98 165 260 190 157 23 301 -32 333 -128 13 -41 6 -89 -24
-149 l-21 -44 -139 0 c-76 0 -136 3 -134 8 3 4 41 52 85 107 79 98 80 100 66
127 -18 35 -27 35 -40 2 -5 -14 -49 -76 -99 -138 l-90 -112 -84 -18 c-188 -39
-331 -121 -331 -191 0 -51 93 -115 169 -115 12 0 24 -8 28 -17 14 -41 26 -45
38 -16 11 26 21 31 91 46 170 37 336 127 435 235 28 31 61 60 73 64 18 5 18 6
2 7 -13 1 -16 6 -11 19 33 80 24 163 -25 230 -67 93 -230 140 -387 112z m327
-371 c0 -13 -62 -71 -115 -108 -105 -74 -335 -165 -335 -133 0 11 71 112 123
177 23 28 43 52 44 55 13 17 283 27 283 9z m-390 -71 c-18 -24 -55 -78 -82
-120 -49 -75 -51 -77 -98 -83 -58 -8 -116 8 -131 36 -25 48 69 126 218 180 43
15 89 28 101 28 23 1 23 0 -8 -41z"/>
<path d="M9557 1014 c-4 -16 -61 -105 -128 -199 -66 -93 -129 -186 -140 -207
-18 -36 -18 -36 2 -62 11 -14 25 -26 30 -26 5 0 40 29 78 65 37 36 71 65 75
65 3 0 -3 -15 -14 -32 -26 -42 -25 -63 2 -82 26 -19 38 -13 113 56 55 50 57
51 40 19 -13 -27 -15 -39 -6 -58 l12 -25 28 38 c62 85 233 244 262 244 5 0
-21 -41 -56 -91 -74 -104 -82 -123 -65 -155 l13 -23 27 37 c49 68 120 141 181
187 72 53 92 58 56 13 -63 -79 -127 -182 -127 -203 0 -27 37 -58 56 -47 7 4
38 31 68 60 31 28 58 52 61 52 3 0 -1 -13 -10 -30 -20 -39 -19 -56 7 -74 27
-19 39 -13 119 62 l62 57 -22 -42 -21 -42 24 -27 23 -28 29 22 c16 11 63 55
104 98 l75 77 -76 -66 c-166 -141 -162 -116 19 141 l94 132 81 0 c57 0 77 3
67 10 -8 5 -39 10 -69 10 -52 0 -53 0 -47 26 5 17 1 35 -9 51 l-17 25 -23 -50
c-21 -46 -26 -50 -67 -57 -23 -4 -53 -13 -65 -21 -26 -16 -30 -49 -9 -57 10
-4 13 -1 10 7 -5 13 54 42 64 32 8 -8 -111 -170 -157 -214 -62 -59 -150 -126
-157 -119 -8 8 18 53 80 141 56 77 56 79 40 103 l-16 25 -25 -43 c-13 -24 -43
-63 -66 -87 -58 -60 -167 -146 -175 -138 -10 11 28 72 90 147 57 68 58 70 42
94 -30 46 -57 33 -186 -94 -43 -41 -78 -73 -78 -69 0 4 23 35 50 69 54 67 57
76 37 104 -23 30 -59 12 -153 -78 -90 -84 -94 -85 -37 -6 38 53 39 56 17 81
-16 17 -18 16 -37 -24 -31 -62 -226 -243 -243 -225 -8 8 18 53 81 140 55 77
56 79 40 104 l-17 25 -29 -50 c-41 -73 -239 -248 -239 -212 0 18 31 67 140
220 53 74 106 149 118 167 l22 32 -23 27 -24 27 -6 -29z"/>
<path d="M12807 1018 c-12 -47 -205 -306 -255 -343 -108 -79 -262 -140 -262
-104 0 6 7 26 16 44 12 26 22 33 54 38 75 10 220 90 220 121 0 29 -36 59 -69
58 -94 -2 -261 -152 -261 -233 0 -36 53 -82 84 -73 42 13 113 53 162 91 75 60
80 61 50 10 -29 -51 -28 -80 4 -97 21 -11 44 4 129 84 61 59 61 59 -1 -54 -91
-165 -111 -247 -69 -282 40 -32 73 -23 125 32 56 60 90 131 106 220 11 59 8
138 -6 174 -9 24 44 76 79 77 18 0 41 4 52 9 15 7 10 9 -22 9 -24 1 -43 4 -43
7 0 4 27 45 61 91 60 84 60 85 43 111 -16 25 -18 25 -28 7 -6 -10 -38 -59 -72
-109 -53 -81 -63 -91 -87 -88 -31 3 -46 -20 -27 -42 16 -20 -5 -50 -78 -113
-190 -163 -187 -142 20 148 65 91 118 170 118 175 0 5 -9 20 -19 33 l-18 24
-6 -25z m23 -447 c-14 -80 -65 -176 -125 -238 -61 -63 -91 -70 -81 -20 7 37
120 267 168 342 l32 50 8 -39 c5 -23 4 -62 -2 -95z"/>
<path d="M9115 988 c-19 -38 -27 -43 -75 -56 -30 -7 -61 -18 -67 -24 -18 -14
-16 -45 2 -52 8 -3 14 0 12 6 -2 13 48 42 63 36 4 -2 -14 -33 -41 -70 -47 -64
-52 -68 -89 -68 -25 0 -40 5 -40 13 0 6 -9 23 -20 37 -18 24 -19 24 -13 3 9
-38 -2 -53 -34 -44 -36 9 -37 41 -3 58 16 8 19 13 9 13 -33 0 -157 -76 -229
-141 -96 -87 -169 -143 -176 -136 -9 9 23 61 87 142 l61 77 -20 27 c-12 16
-27 25 -38 23 -24 -5 -89 -56 -173 -136 -70 -67 -70 -61 -3 27 43 57 44 58 27
84 l-17 25 -22 -38 c-13 -22 -48 -74 -79 -118 -58 -79 -69 -114 -43 -135 11
-10 16 -8 20 7 15 47 274 278 292 260 2 -3 -6 -19 -20 -35 -49 -58 -126 -177
-126 -195 0 -10 9 -27 20 -38 25 -25 34 -21 115 53 l60 54 -3 -36 c-3 -28 2
-41 22 -60 40 -38 94 -33 163 15 55 38 143 142 143 170 0 9 12 14 36 14 25 0
33 -3 28 -12 -5 -7 -28 -43 -52 -81 -47 -73 -50 -101 -15 -124 19 -13 25 -11
70 29 26 24 68 66 93 93 44 50 44 50 5 14 -73 -66 -135 -112 -142 -105 -10 9
22 61 133 218 l98 138 85 1 c94 0 88 17 -6 18 -56 1 -58 2 -43 30 6 13 5 24
-6 39 -21 30 -26 28 -49 -20z m-293 -236 c39 -16 -133 -190 -204 -207 -56 -14
-42 54 28 134 62 72 119 95 176 73z"/>
<path d="M7910 804 c-121 -65 -204 -171 -179 -228 15 -31 72 -60 102 -50 77
23 180 114 212 185 15 32 23 39 54 42 l36 4 -36 1 c-31 2 -39 7 -50 35 l-14
32 -5 -30 c-5 -25 -9 -29 -30 -27 -14 2 -29 8 -34 12 -13 13 1 39 26 50 21 8
21 9 3 9 -11 0 -49 -16 -85 -35z m89 -53 c19 -12 -4 -47 -76 -119 -85 -82
-163 -113 -163 -64 0 39 89 149 145 180 24 14 75 15 94 3z"/>
<path d="M11237 804 c-51 -26 -101 -67 -205 -169 -75 -74 -138 -135 -140 -135
-6 0 74 119 130 194 73 96 73 98 49 120 -18 17 -19 17 -26 -2 -8 -26 -119
-131 -210 -199 -67 -51 -95 -63 -95 -44 0 12 112 162 135 181 18 15 20 54 2
68 -9 8 -32 -16 -95 -100 -45 -60 -82 -116 -82 -123 0 -8 12 -27 26 -44 32
-39 38 -36 152 73 48 45 78 68 67 51 -89 -139 -142 -227 -177 -291 -39 -72
-39 -75 -24 -100 17 -24 36 -25 36 -1 0 36 105 178 236 322 45 50 45 50 39 18
-17 -86 70 -122 171 -70 41 21 132 120 150 162 12 29 19 35 45 35 34 0 35 3
-28 -84 -24 -32 -43 -68 -43 -81 0 -24 28 -55 51 -55 16 0 71 43 153 119 50
46 50 40 -1 -34 -18 -27 -16 -48 7 -73 26 -27 36 -23 122 56 57 52 60 54 40
21 -26 -42 -26 -49 -9 -73 13 -17 16 -14 44 35 33 58 143 168 195 195 19 10
44 14 65 11 24 -4 33 -2 33 8 0 25 -12 45 -27 45 -18 0 -97 -57 -132 -94 -33
-35 -47 -33 -22 3 26 35 26 43 4 64 -17 14 -19 13 -38 -26 -30 -63 -223 -242
-242 -224 -7 7 43 86 104 165 39 50 42 57 29 76 -16 25 -24 22 -51 -18 -22
-33 -194 -180 -244 -209 -30 -17 -31 -17 -31 0 0 16 46 82 121 175 19 23 21
31 11 53 -15 33 -24 32 -46 -10 -17 -31 -24 -35 -58 -35 -31 0 -40 4 -48 24
-11 29 -30 43 -24 19 7 -31 -9 -45 -39 -34 -33 13 -35 35 -5 55 40 28 -4 17
-75 -20z m81 -50 c12 -4 22 -10 22 -15 0 -5 -30 -40 -67 -79 -72 -77 -144
-126 -169 -116 -39 15 19 121 101 186 37 29 67 36 113 24z"/>
<path d="M12165 696 c-22 -7 -46 -11 -53 -8 -6 2 -12 -1 -12 -6 0 -5 -21 -18
-47 -29 -54 -22 -113 -68 -113 -87 0 -45 85 -59 158 -26 99 45 128 89 80 119
-23 14 -23 15 17 32 46 21 29 24 -30 5z"/>
</g>
</svg>
